<?xml version="1.0" encoding="UTF-8"?>
<svg xmlns="http://www.w3.org/2000/svg" xmlns:xlink="http://www.w3.org/1999/xlink" width="112.5pt" height="37.5pt" viewBox="0 0 112.5 37.5" version="1.2">
<defs>
<clipPath id="clip1">
  <path d="M 103 14 L 111.511719 14 L 111.511719 25 L 103 25 Z M 103 14 "/>
</clipPath>
</defs>
<g id="surface1">
<path style=" stroke:none;fill-rule:nonzero;fill:rgb(0%,0%,0%);fill-opacity:1;" d="M 1.6875 14.816406 L 1.6875 24.457031 L 5.574219 24.457031 C 8.476562 24.457031 10.570312 22.417969 10.570312 19.636719 C 10.570312 16.839844 8.492188 14.816406 5.617188 14.816406 Z M 3.300781 16.277344 L 5.589844 16.277344 C 7.476562 16.277344 8.941406 17.679688 8.941406 19.648438 C 8.941406 21.605469 7.519531 22.996094 5.65625 22.996094 L 3.300781 22.996094 Z M 3.300781 16.277344 "/>
<path style=" stroke:none;fill-rule:nonzero;fill:rgb(0%,0%,0%);fill-opacity:1;" d="M 23.578125 24.457031 L 25.410156 24.457031 L 23.261719 21.234375 C 24.535156 20.738281 25.246094 19.648438 25.246094 18.109375 C 25.246094 16.015625 23.835938 14.816406 21.386719 14.816406 L 17.5 14.816406 L 17.5 24.457031 L 19.113281 24.457031 L 19.113281 21.550781 L 21.386719 21.550781 C 21.539062 21.550781 21.6875 21.550781 21.824219 21.539062 Z M 19.113281 20.089844 L 19.113281 16.277344 L 21.386719 16.277344 C 22.867188 16.277344 23.714844 16.882812 23.714844 18.148438 C 23.714844 19.457031 22.867188 20.089844 21.386719 20.089844 Z M 19.113281 20.089844 "/>
<path style=" stroke:none;fill-rule:nonzero;fill:rgb(0%,0%,0%);fill-opacity:1;" d="M 38.789062 22.28125 L 39.703125 24.457031 L 41.429688 24.457031 L 37.242188 14.816406 L 35.582031 14.816406 L 31.351562 24.457031 L 33.039062 24.457031 L 33.953125 22.28125 Z M 38.171875 20.835938 L 34.558594 20.835938 L 36.363281 16.550781 Z M 38.171875 20.835938 "/>
<path style=" stroke:none;fill-rule:nonzero;fill:rgb(0%,0%,0%);fill-opacity:1;" d="M 54.324219 16.277344 L 54.339844 14.816406 L 47.90625 14.816406 L 47.90625 24.457031 L 49.519531 24.457031 L 49.519531 20.503906 L 53.875 20.503906 L 53.875 19.058594 L 49.519531 19.058594 L 49.519531 16.277344 Z M 54.324219 16.277344 "/>
<path style=" stroke:none;fill-rule:nonzero;fill:rgb(26.669312%,85.099792%,90.19928%);fill-opacity:1;" d="M 67.523438 16.277344 L 67.523438 14.816406 L 59.84375 14.816406 L 59.84375 16.277344 L 62.867188 16.277344 L 62.867188 24.457031 L 64.484375 24.457031 L 64.484375 16.277344 Z M 67.523438 16.277344 "/>
<path style=" stroke:none;fill-rule:nonzero;fill:rgb(26.669312%,85.099792%,90.19928%);fill-opacity:1;" d="M 80.953125 16.277344 L 80.953125 14.816406 L 74.105469 14.816406 L 74.105469 24.457031 L 81.117188 24.457031 L 81.117188 22.996094 L 75.722656 22.996094 L 75.722656 20.339844 L 80.40625 20.339844 L 80.40625 18.878906 L 75.722656 18.878906 L 75.722656 16.277344 Z M 80.953125 16.277344 "/>
<path style=" stroke:none;fill-rule:nonzero;fill:rgb(26.669312%,85.099792%,90.19928%);fill-opacity:1;" d="M 92.535156 14.773438 C 89.699219 14.773438 87.496094 16.882812 87.496094 19.621094 C 87.496094 22.390625 89.671875 24.527344 92.480469 24.527344 C 93.835938 24.527344 95.21875 23.90625 96.191406 22.941406 L 95.230469 21.867188 C 94.503906 22.570312 93.519531 23.011719 92.5625 23.011719 C 90.644531 23.011719 89.140625 21.507812 89.140625 19.609375 C 89.140625 17.707031 90.644531 16.21875 92.5625 16.21875 C 93.535156 16.21875 94.53125 16.6875 95.230469 17.445312 L 96.175781 16.261719 C 95.246094 15.339844 93.890625 14.773438 92.535156 14.773438 Z M 92.535156 14.773438 "/>
<g clip-path="url(#clip1)" clip-rule="nonzero">
<path style=" stroke:none;fill-rule:nonzero;fill:rgb(26.669312%,85.099792%,90.19928%);fill-opacity:1;" d="M 111.34375 24.457031 L 111.34375 14.816406 L 109.730469 14.816406 L 109.730469 19.003906 L 104.648438 19.003906 L 104.648438 14.816406 L 103.035156 14.816406 L 103.035156 24.457031 L 104.648438 24.457031 L 104.648438 20.460938 L 109.730469 20.460938 L 109.730469 24.457031 Z M 111.34375 24.457031 "/>
</g>
</g>
</svg>
