<?xml version="1.0" encoding="UTF-8"?>
<svg xmlns="http://www.w3.org/2000/svg" xmlns:xlink="http://www.w3.org/1999/xlink" width="1200pt" height="599.999999pt" viewBox="0 0 1200 599.999999" version="1.2">
<g id="surface1">
<path style=" stroke:none;fill-rule:nonzero;fill:rgb(0%,0%,0%);fill-opacity:1;" d="M 13.140625 113.652344 L 13.140625 214.507812 L 55.496094 214.507812 C 87.917969 214.507812 110.109375 193.90625 110.109375 164.082031 C 110.109375 134.113281 88.199219 113.652344 56.503906 113.652344 Z M 38.78125 134.113281 L 55.9375 134.113281 C 72.210938 134.113281 84.03125 146.359375 84.03125 164.222656 C 84.03125 181.945312 72.792969 194.050781 57.085938 194.050781 L 38.78125 194.050781 Z M 38.78125 134.113281 "/>
<path style=" stroke:none;fill-rule:nonzero;fill:rgb(0%,0%,0%);fill-opacity:1;" d="M 239.191406 214.507812 L 268.292969 214.507812 L 247.121094 181.222656 C 258.925781 175.320312 265.410156 164.222656 265.410156 148.816406 C 265.410156 126.324219 250.144531 113.652344 223.484375 113.652344 L 178.390625 113.652344 L 178.390625 214.507812 L 204.027344 214.507812 L 204.027344 186.132812 L 224.207031 186.132812 Z M 204.027344 165.953125 L 204.027344 133.816406 L 223.484375 133.816406 C 234.578125 133.816406 241.0625 139.152344 241.0625 149.664062 C 241.0625 160.335938 234.578125 165.953125 223.484375 165.953125 Z M 204.027344 165.953125 "/>
<path style=" stroke:none;fill-rule:nonzero;fill:rgb(0%,0%,0%);fill-opacity:1;" d="M 404.445312 195.921875 L 411.636719 214.507812 L 439.023438 214.507812 L 396.511719 113.652344 L 370.148438 113.652344 L 326.628906 214.507812 L 353.007812 214.507812 L 360.34375 195.921875 Z M 396.953125 176.46875 L 367.835938 176.46875 L 382.535156 139.152344 Z M 396.953125 176.46875 "/>
<path style=" stroke:none;fill-rule:nonzero;fill:rgb(0%,0%,0%);fill-opacity:1;" d="M 577.898438 133.816406 L 577.898438 113.652344 L 503.121094 113.652344 L 503.121094 214.507812 L 528.761719 214.507812 L 528.761719 177.335938 L 574.011719 177.335938 L 574.011719 157.15625 L 528.761719 157.15625 L 528.761719 133.816406 Z M 577.898438 133.816406 "/>
<path style=" stroke:none;fill-rule:nonzero;fill:rgb(26.669312%,85.099792%,90.19928%);fill-opacity:1;" d="M 716.898438 128.921875 L 716.898438 113.652344 L 636.0625 113.652344 L 636.0625 128.921875 L 667.917969 128.921875 L 667.917969 214.507812 L 684.917969 214.507812 L 684.917969 128.921875 Z M 716.898438 128.921875 "/>
<path style=" stroke:none;fill-rule:nonzero;fill:rgb(26.669312%,85.099792%,90.19928%);fill-opacity:1;" d="M 858.222656 128.921875 L 858.222656 113.652344 L 786.1875 113.652344 L 786.1875 214.507812 L 859.953125 214.507812 L 859.953125 199.242188 L 803.183594 199.242188 L 803.183594 171.433594 L 852.464844 171.433594 L 852.464844 156.148438 L 803.183594 156.148438 L 803.183594 128.921875 Z M 858.222656 128.921875 "/>
<path style=" stroke:none;fill-rule:nonzero;fill:rgb(26.669312%,85.099792%,90.19928%);fill-opacity:1;" d="M 980.109375 113.214844 C 950.285156 113.214844 927.085938 135.265625 927.085938 163.941406 C 927.085938 192.898438 950 215.234375 979.542969 215.234375 C 993.804688 215.234375 1008.347656 208.75 1018.578125 198.660156 L 1008.503906 187.421875 C 1000.855469 194.773438 990.484375 199.382812 980.394531 199.382812 C 960.230469 199.382812 944.382812 183.675781 944.382812 163.796875 C 944.382812 143.90625 960.230469 128.355469 980.394531 128.355469 C 990.625 128.355469 1001.152344 133.25 1008.503906 141.164062 L 1018.433594 128.777344 C 1008.644531 119.132812 994.371094 113.214844 980.109375 113.214844 Z M 980.109375 113.214844 "/>
<path style=" stroke:none;fill-rule:nonzero;fill:rgb(26.669312%,85.099792%,90.19928%);fill-opacity:1;" d="M 1178.070312 214.507812 L 1178.070312 113.652344 L 1161.070312 113.652344 L 1161.070312 157.457031 L 1107.605469 157.457031 L 1107.605469 113.652344 L 1090.605469 113.652344 L 1090.605469 214.507812 L 1107.605469 214.507812 L 1107.605469 172.722656 L 1161.070312 172.722656 L 1161.070312 214.507812 Z M 1178.070312 214.507812 "/>
<path style=" stroke:none;fill-rule:nonzero;fill:rgb(39.99939%,39.99939%,39.99939%);fill-opacity:1;" d="M 22.261719 302.101562 L 28.179688 302.101562 L 28.179688 352.84375 L 22.261719 352.84375 Z M 22.261719 302.101562 "/>
<path style=" stroke:none;fill-rule:nonzero;fill:rgb(39.99939%,39.99939%,39.99939%);fill-opacity:1;" d="M 133.59375 352.84375 L 126.855469 352.84375 L 99.15625 310.285156 L 98.902344 310.285156 C 99.234375 315.289062 99.40625 319.855469 99.40625 324.011719 L 99.40625 352.84375 L 93.992188 352.84375 L 93.992188 302.101562 L 100.667969 302.101562 L 128.304688 344.535156 L 128.554688 344.535156 C 128.507812 343.902344 128.398438 341.890625 128.242188 338.488281 C 128.113281 335.089844 128.066406 332.683594 128.113281 331.25 L 128.113281 302.101562 L 133.59375 302.101562 Z M 133.59375 352.84375 "/>
<path style=" stroke:none;fill-rule:nonzero;fill:rgb(39.99939%,39.99939%,39.99939%);fill-opacity:1;" d="M 215.101562 352.84375 L 209.183594 352.84375 L 209.183594 307.328125 L 193.128906 307.328125 L 193.128906 302.101562 L 231.15625 302.101562 L 231.15625 307.328125 L 215.101562 307.328125 Z M 215.101562 352.84375 "/>
<path style=" stroke:none;fill-rule:nonzero;fill:rgb(39.99939%,39.99939%,39.99939%);fill-opacity:1;" d="M 318.988281 352.84375 L 290.722656 352.84375 L 290.722656 302.101562 L 318.988281 302.101562 L 318.988281 307.328125 L 296.640625 307.328125 L 296.640625 323.695312 L 317.667969 323.695312 L 317.667969 328.921875 L 296.640625 328.921875 L 296.640625 347.554688 L 318.988281 347.554688 Z M 318.988281 352.84375 "/>
<path style=" stroke:none;fill-rule:nonzero;fill:rgb(39.99939%,39.99939%,39.99939%);fill-opacity:1;" d="M 388.082031 331.753906 L 388.082031 352.84375 L 382.164062 352.84375 L 382.164062 302.101562 L 396.078125 302.101562 C 402.277344 302.101562 406.875 303.296875 409.863281 305.691406 C 412.839844 308.082031 414.335938 311.671875 414.335938 316.457031 C 414.335938 323.175781 410.933594 327.707031 404.136719 330.054688 L 417.921875 352.84375 L 410.933594 352.84375 L 398.660156 331.753906 Z M 388.082031 326.652344 L 396.140625 326.652344 C 400.296875 326.652344 403.332031 325.835938 405.269531 324.199219 C 407.238281 322.5625 408.226562 320.089844 408.226562 316.769531 C 408.226562 313.417969 407.238281 311.007812 405.269531 309.53125 C 403.285156 308.019531 400.105469 307.261719 395.699219 307.261719 L 388.082031 307.261719 Z M 388.082031 326.652344 "/>
<path style=" stroke:none;fill-rule:nonzero;fill:rgb(39.99939%,39.99939%,39.99939%);fill-opacity:1;" d="M 517.613281 352.84375 L 510.878906 352.84375 L 483.175781 310.285156 L 482.925781 310.285156 C 483.253906 315.289062 483.429688 319.855469 483.429688 324.011719 L 483.429688 352.84375 L 478.015625 352.84375 L 478.015625 302.101562 L 484.6875 302.101562 L 512.324219 344.535156 L 512.578125 344.535156 C 512.53125 343.902344 512.421875 341.890625 512.261719 338.488281 C 512.136719 335.089844 512.089844 332.683594 512.136719 331.25 L 512.136719 302.101562 L 517.613281 302.101562 Z M 517.613281 352.84375 "/>
<path style=" stroke:none;fill-rule:nonzero;fill:rgb(39.99939%,39.99939%,39.99939%);fill-opacity:1;" d="M 615.367188 352.84375 L 609.070312 336.726562 L 588.734375 336.726562 L 582.503906 352.84375 L 576.523438 352.84375 L 596.605469 301.914062 L 601.515625 301.914062 L 621.472656 352.84375 Z M 607.246094 331.375 L 601.328125 315.699219 C 600.570312 313.683594 599.785156 311.230469 599 308.332031 C 598.496094 310.570312 597.753906 313.023438 596.792969 315.699219 L 590.8125 331.375 Z M 607.246094 331.375 "/>
<path style=" stroke:none;fill-rule:nonzero;fill:rgb(39.99939%,39.99939%,39.99939%);fill-opacity:1;" d="M 696.015625 352.84375 L 690.097656 352.84375 L 690.097656 307.328125 L 674.042969 307.328125 L 674.042969 302.101562 L 712.066406 302.101562 L 712.066406 307.328125 L 696.015625 307.328125 Z M 696.015625 352.84375 "/>
<path style=" stroke:none;fill-rule:nonzero;fill:rgb(39.99939%,39.99939%,39.99939%);fill-opacity:1;" d="M 771.632812 302.101562 L 777.550781 302.101562 L 777.550781 352.84375 L 771.632812 352.84375 Z M 771.632812 302.101562 "/>
<path style=" stroke:none;fill-rule:nonzero;fill:rgb(39.99939%,39.99939%,39.99939%);fill-opacity:1;" d="M 887.375 327.410156 C 887.375 335.515625 885.3125 341.890625 881.207031 346.546875 C 877.128906 351.207031 871.417969 353.535156 864.082031 353.535156 C 856.605469 353.535156 850.828125 351.253906 846.769531 346.675781 C 842.738281 342.109375 840.726562 335.65625 840.726562 327.347656 C 840.726562 319.082031 842.753906 312.679688 846.832031 308.144531 C 850.894531 303.582031 856.683594 301.28125 864.207031 301.28125 C 871.464844 301.28125 877.128906 303.613281 881.207031 308.269531 C 885.3125 312.898438 887.375 319.273438 887.375 327.410156 Z M 846.957031 327.410156 C 846.957031 334.304688 848.421875 339.527344 851.363281 343.085938 C 854.292969 346.609375 858.542969 348.375 864.082031 348.375 C 869.699219 348.375 873.933594 346.609375 876.800781 343.085938 C 879.695312 339.527344 881.144531 334.304688 881.144531 327.410156 C 881.144531 320.578125 879.710938 315.386719 876.863281 311.859375 C 873.996094 308.332031 869.78125 306.570312 864.207031 306.570312 C 858.574219 306.570312 854.292969 308.367188 851.363281 311.921875 C 848.421875 315.449219 846.957031 320.609375 846.957031 327.410156 Z M 846.957031 327.410156 "/>
<path style=" stroke:none;fill-rule:nonzero;fill:rgb(39.99939%,39.99939%,39.99939%);fill-opacity:1;" d="M 990.234375 352.84375 L 983.496094 352.84375 L 955.796875 310.285156 L 955.546875 310.285156 C 955.875 315.289062 956.046875 319.855469 956.046875 324.011719 L 956.046875 352.84375 L 950.632812 352.84375 L 950.632812 302.101562 L 957.308594 302.101562 L 984.945312 344.535156 L 985.199219 344.535156 C 985.148438 343.902344 985.039062 341.890625 984.882812 338.488281 C 984.757812 335.089844 984.710938 332.683594 984.757812 331.25 L 984.757812 302.101562 L 990.234375 302.101562 Z M 990.234375 352.84375 "/>
<path style=" stroke:none;fill-rule:nonzero;fill:rgb(39.99939%,39.99939%,39.99939%);fill-opacity:1;" d="M 1087.980469 352.84375 L 1081.6875 336.726562 L 1061.351562 336.726562 L 1055.121094 352.84375 L 1049.136719 352.84375 L 1069.222656 301.914062 L 1074.132812 301.914062 L 1094.089844 352.84375 Z M 1079.859375 331.375 L 1073.941406 315.699219 C 1073.1875 313.683594 1072.402344 311.230469 1071.613281 308.332031 C 1071.109375 310.570312 1070.371094 313.023438 1069.410156 315.699219 L 1063.429688 331.375 Z M 1079.859375 331.375 "/>
<path style=" stroke:none;fill-rule:nonzero;fill:rgb(39.99939%,39.99939%,39.99939%);fill-opacity:1;" d="M 1153.015625 352.84375 L 1153.015625 302.101562 L 1158.933594 302.101562 L 1158.933594 347.492188 L 1181.285156 347.492188 L 1181.285156 352.84375 Z M 1153.015625 352.84375 "/>
<path style=" stroke:none;fill-rule:nonzero;fill:rgb(26.669312%,85.099792%,90.19928%);fill-opacity:1;" d="M 15.335938 432.058594 L 402.171875 432.058594 L 402.171875 526.242188 L 15.335938 526.242188 Z M 15.335938 432.058594 "/>
<path style=" stroke:none;fill-rule:nonzero;fill:rgb(65.879822%,65.879822%,65.879822%);fill-opacity:1;" d="M 411.347656 432.058594 L 795.597656 432.058594 L 795.597656 526.242188 L 411.347656 526.242188 Z M 411.347656 432.058594 "/>
<path style=" stroke:none;fill-rule:nonzero;fill:rgb(0%,0%,0%);fill-opacity:1;" d="M 804.980469 432.058594 L 1191.84375 432.058594 L 1191.84375 526.242188 L 804.980469 526.242188 Z M 804.980469 432.058594 "/>
</g>
</svg>
